<?xml version="1.0" encoding="UTF-8"?>
<!DOCTYPE svg PUBLIC "-//W3C//DTD SVG 1.1//EN" "http://www.w3.org/Graphics/SVG/1.1/DTD/svg11.dtd">
<!-- Creator: CorelDRAW 2018 (64-Bit) -->
<svg xmlns="http://www.w3.org/2000/svg" xml:space="preserve" width="177px" height="108px" version="1.1" style="shape-rendering:geometricPrecision; text-rendering:geometricPrecision; image-rendering:optimizeQuality; fill-rule:evenodd; clip-rule:evenodd"
viewBox="0 0 177 108.03"
 xmlns:xlink="http://www.w3.org/1999/xlink">
 <defs>
  <style type="text/css">
   <![CDATA[
    .fil0 {fill:#FEFEFE}
   ]]>
  </style>
 </defs>
 <g id="Слой_x0020_1">
  <metadata id="CorelCorpID_0Corel-Layer"/>
  <g id="_2249685349120">
   <g>
    <path class="fil0" d="M67.61 44.62c1.27,4.39 2.88,9.01 4.3,13.26 4.36,13.03 2.64,7.37 0.84,12.51l-30.86 0c1.13,-1.7 4.92,-5.03 6.61,-6.76 2,-2.04 4.44,-4.78 6.53,-6.48 3.3,4.32 2.32,4.06 4.28,7.59l8.86 0.03c0.13,-4.66 -6.07,-12.37 -6.84,-14.03l6.28 -6.12zm49.62 -16.64c-0.97,1.44 -3.06,3.38 -4.28,4.82 -2.9,3.43 -5.61,5.86 -8.55,9.27l-12.7 13.92c-1.4,1.57 -2.84,3.07 -4.17,4.63 -0.96,1.13 -3.12,3.59 -4.19,4.42 -1.82,-0.49 -1.54,0.13 -2.16,-1.92 -1.51,-4.99 -6.66,-19.23 -6.99,-21.71l43.04 -13.43zm4.87 -10.98c11.43,-3.57 8.95,-1.94 12.06,-7.49 1.05,-1.88 1.26,-1.09 2.51,-2.33 0.85,-0.85 1.32,-2.02 1.12,-3.68 -0.53,-4.25 -6.77,-4.68 -8.21,-0.99 -0.63,1.62 0.2,2.44 -0.59,4.24 -1.42,3.24 -2.45,2.68 -5.93,3.78 -1.96,0.61 -6.06,1.57 -7.03,2.63 -1.86,2.04 0.71,5.2 1.24,7.31l-45.48 14.17c-0.52,-1.98 -0.45,-1.63 -1.43,-2.15 -0.5,-0.27 -0.59,-0.17 -0.93,-0.88 -0.41,-0.85 -1.06,-2.89 -1.44,-4.01 -0.93,-2.76 -2.14,-5.31 -2.9,-8.14l14.32 -4.41c0.23,-3.86 -1.57,-3.9 -5.14,-3.84 -2.75,0.05 -5.48,0.18 -8.16,0.33 -5.49,0.31 -11.26,0.19 -16.66,-0.27 -1.2,-0.1 -4.71,-0.99 -4.84,3.1 -0.08,2.64 1.99,3.63 3.66,4.81 6.22,4.41 6.23,4.37 12.38,2.81 0.64,0.97 1.17,2.94 1.62,4.08l2.39 6.39c1.21,2.99 -0.86,0.81 0.2,3.99 0.28,0.85 0.48,1.21 0.63,2.12 -3.37,2.26 -28.39,29.37 -30.31,29.88 -2.42,0.64 -3.02,0.25 -4.41,2.26 -2.3,3.33 0.55,7.88 4.77,7.28 2.86,-0.41 1.5,-1.94 4.82,-1.87l20.08 -0.01c-0.45,10.12 -9.06,19.66 -19.24,22.28 -6.19,1.59 -12.66,0.72 -17.68,-1.79 -22.66,-11.35 -17.45,-43.13 4.97,-48.45 6.85,-1.62 11.73,-0.59 17.34,1.63 1.27,-0.77 2.24,-1.92 3.3,-3.06 0.77,-0.83 2.64,-2.38 3.04,-3.31 -2.24,-1.68 -6.85,-3.32 -10.18,-4.03 -29.55,-6.33 -52.19,25.77 -37.26,51.18 16.52,28.12 60.1,21.32 64.57,-14.37l3.15 -0.08c2.23,2.42 -0.07,1.88 4.87,5.14l-2.15 10.26c-2.04,0 -2.88,-0.6 -3.06,1.17 -0.13,1.28 -0.17,2.95 0.72,3.26l6.3 0.11c1.03,-0.07 2.31,-0.1 1.68,-3.59 -0.25,-1.44 -0.57,-0.86 -2.2,-1.02l2.01 -9.61c3.75,0.03 6.28,-1.94 7.61,-4.17 2.84,-4.72 -0.62,-6.48 1.42,-8.86l32.72 -36.2 4.26 9.6 -4.93 3.27c-4.57,3.39 -8.55,8.18 -10.91,13.6 -12.11,27.79 13.73,55.94 41.68,47.4 27.35,-8.35 32.72,-43.71 11.59,-60.27 -6.58,-5.16 -13.68,-7.68 -24.65,-7.49l2.85 8.63c13.6,0.06 24.29,10.23 25.78,22.4 1.84,14.91 -7.72,25.28 -18.66,28.5 -15.03,4.43 -27.2,-5.61 -31.06,-15.39 -2.76,-6.98 -2.23,-13.49 0.4,-20.11 2.39,-6.04 6.68,-9.18 11.44,-12.3 1.5,2.99 2.84,6.44 4.2,9.72 1.34,3.26 2.74,6.45 4.12,9.5 1.09,2.42 -0.68,3.23 0.58,5.78 3.18,6.42 12.82,-0.27 7.81,-5.41 -1.66,-1.69 -1.17,0.34 -2.8,-4.16l-9.4 -24.78c-0.49,-1.28 -2.2,-6.51 -3.1,-7.18 -0.79,-0.57 -2.33,-0.5 -2.6,-0.79l-6.87 -16.12z"/>
    <path class="fil0" d="M80.81 54.93l2.05 0.19c-0.26,1.7 -0.71,2.38 0.54,3.11 2.23,1.47 2.31,-1.51 2.85,-3.14l3.09 -0.14 0.02 -4.16c-1.66,-0.4 -6.58,-0.18 -8.47,-0.12l-0.08 4.26z"/>
   </g>
  </g>
 </g>
</svg>
